<mxfile host="app.diagrams.net" modified="2022-02-24T12:47:23.860Z" agent="5.0 (Windows NT 10.0; Win64; x64) AppleWebKit/537.36 (KHTML, like Gecko) Chrome/98.0.4758.102 Safari/537.36" etag="IMC_J2I__IZnf0V9c0SI" version="16.6.3" type="github">
  <diagram id="C5RBs43oDa-KdzZeNtuy" name="Page-1">
    <mxGraphModel dx="1422" dy="758" grid="1" gridSize="10" guides="1" tooltips="1" connect="1" arrows="1" fold="1" page="1" pageScale="1" pageWidth="827" pageHeight="1169" math="0" shadow="0">
      <root>
        <mxCell id="WIyWlLk6GJQsqaUBKTNV-0" />
        <mxCell id="WIyWlLk6GJQsqaUBKTNV-1" parent="WIyWlLk6GJQsqaUBKTNV-0" />
        <mxCell id="zkfFHV4jXpPFQw0GAbJ--0" value="Universite" style="swimlane;fontStyle=2;align=center;verticalAlign=top;childLayout=stackLayout;horizontal=1;startSize=26;horizontalStack=0;resizeParent=1;resizeLast=0;collapsible=1;marginBottom=0;rounded=0;shadow=0;strokeWidth=1;" parent="WIyWlLk6GJQsqaUBKTNV-1" vertex="1">
          <mxGeometry x="430" y="340" width="160" height="138" as="geometry">
            <mxRectangle x="230" y="140" width="160" height="26" as="alternateBounds" />
          </mxGeometry>
        </mxCell>
        <mxCell id="zkfFHV4jXpPFQw0GAbJ--4" value="" style="line;html=1;strokeWidth=1;align=left;verticalAlign=middle;spacingTop=-1;spacingLeft=3;spacingRight=3;rotatable=0;labelPosition=right;points=[];portConstraint=eastwest;" parent="zkfFHV4jXpPFQw0GAbJ--0" vertex="1">
          <mxGeometry y="26" width="160" height="104" as="geometry" />
        </mxCell>
        <mxCell id="zkfFHV4jXpPFQw0GAbJ--6" value="Sınıflık&#xa;" style="swimlane;fontStyle=0;align=center;verticalAlign=top;childLayout=stackLayout;horizontal=1;startSize=26;horizontalStack=0;resizeParent=1;resizeLast=0;collapsible=1;marginBottom=0;rounded=0;shadow=0;strokeWidth=1;" parent="WIyWlLk6GJQsqaUBKTNV-1" vertex="1">
          <mxGeometry x="200" y="568" width="160" height="102" as="geometry">
            <mxRectangle x="130" y="380" width="160" height="26" as="alternateBounds" />
          </mxGeometry>
        </mxCell>
        <mxCell id="zkfFHV4jXpPFQw0GAbJ--9" value="" style="line;html=1;strokeWidth=1;align=left;verticalAlign=middle;spacingTop=-1;spacingLeft=3;spacingRight=3;rotatable=0;labelPosition=right;points=[];portConstraint=eastwest;" parent="zkfFHV4jXpPFQw0GAbJ--6" vertex="1">
          <mxGeometry y="26" width="160" height="74" as="geometry" />
        </mxCell>
        <mxCell id="zkfFHV4jXpPFQw0GAbJ--13" value="Calışma Ofısleri" style="swimlane;fontStyle=0;align=center;verticalAlign=top;childLayout=stackLayout;horizontal=1;startSize=26;horizontalStack=0;resizeParent=1;resizeLast=0;collapsible=1;marginBottom=0;rounded=0;shadow=0;strokeWidth=1;" parent="WIyWlLk6GJQsqaUBKTNV-1" vertex="1">
          <mxGeometry x="430" y="568" width="160" height="100" as="geometry">
            <mxRectangle x="300" y="310" width="170" height="26" as="alternateBounds" />
          </mxGeometry>
        </mxCell>
        <mxCell id="zkfFHV4jXpPFQw0GAbJ--15" value="" style="line;html=1;strokeWidth=1;align=left;verticalAlign=middle;spacingTop=-1;spacingLeft=3;spacingRight=3;rotatable=0;labelPosition=right;points=[];portConstraint=eastwest;" parent="zkfFHV4jXpPFQw0GAbJ--13" vertex="1">
          <mxGeometry y="26" width="160" height="74" as="geometry" />
        </mxCell>
        <mxCell id="zkfFHV4jXpPFQw0GAbJ--17" value="Departmanlar" style="swimlane;fontStyle=0;align=center;verticalAlign=top;childLayout=stackLayout;horizontal=1;startSize=26;horizontalStack=0;resizeParent=1;resizeLast=0;collapsible=1;marginBottom=0;rounded=0;shadow=0;strokeWidth=1;" parent="WIyWlLk6GJQsqaUBKTNV-1" vertex="1">
          <mxGeometry x="650" y="568" width="160" height="102" as="geometry">
            <mxRectangle x="550" y="140" width="160" height="26" as="alternateBounds" />
          </mxGeometry>
        </mxCell>
        <mxCell id="zkfFHV4jXpPFQw0GAbJ--23" value="" style="line;html=1;strokeWidth=1;align=left;verticalAlign=middle;spacingTop=-1;spacingLeft=3;spacingRight=3;rotatable=0;labelPosition=right;points=[];portConstraint=eastwest;" parent="zkfFHV4jXpPFQw0GAbJ--17" vertex="1">
          <mxGeometry y="26" width="160" height="74" as="geometry" />
        </mxCell>
        <mxCell id="3fUCTi72qEseTl0GMBQq-1" value="Ofisler" style="swimlane;fontStyle=0;align=center;verticalAlign=top;childLayout=stackLayout;horizontal=1;startSize=26;horizontalStack=0;resizeParent=1;resizeLast=0;collapsible=1;marginBottom=0;rounded=0;shadow=0;strokeWidth=1;" vertex="1" parent="WIyWlLk6GJQsqaUBKTNV-1">
          <mxGeometry x="950" y="568" width="160" height="102" as="geometry">
            <mxRectangle x="130" y="380" width="160" height="26" as="alternateBounds" />
          </mxGeometry>
        </mxCell>
        <mxCell id="3fUCTi72qEseTl0GMBQq-4" value="" style="line;html=1;strokeWidth=1;align=left;verticalAlign=middle;spacingTop=-1;spacingLeft=3;spacingRight=3;rotatable=0;labelPosition=right;points=[];portConstraint=eastwest;" vertex="1" parent="3fUCTi72qEseTl0GMBQq-1">
          <mxGeometry y="26" width="160" height="74" as="geometry" />
        </mxCell>
        <mxCell id="3fUCTi72qEseTl0GMBQq-12" value="Memur&#xa;" style="swimlane;fontStyle=0;align=center;verticalAlign=top;childLayout=stackLayout;horizontal=1;startSize=26;horizontalStack=0;resizeParent=1;resizeLast=0;collapsible=1;marginBottom=0;rounded=0;shadow=0;strokeWidth=1;" vertex="1" parent="WIyWlLk6GJQsqaUBKTNV-1">
          <mxGeometry x="830" y="330" width="160" height="100" as="geometry">
            <mxRectangle x="130" y="380" width="160" height="26" as="alternateBounds" />
          </mxGeometry>
        </mxCell>
        <mxCell id="3fUCTi72qEseTl0GMBQq-15" value="" style="line;html=1;strokeWidth=1;align=left;verticalAlign=middle;spacingTop=-1;spacingLeft=3;spacingRight=3;rotatable=0;labelPosition=right;points=[];portConstraint=eastwest;" vertex="1" parent="3fUCTi72qEseTl0GMBQq-12">
          <mxGeometry y="26" width="160" height="64" as="geometry" />
        </mxCell>
        <mxCell id="3fUCTi72qEseTl0GMBQq-18" value="Profesör" style="swimlane;fontStyle=0;align=center;verticalAlign=top;childLayout=stackLayout;horizontal=1;startSize=26;horizontalStack=0;resizeParent=1;resizeLast=0;collapsible=1;marginBottom=0;rounded=0;shadow=0;strokeWidth=1;" vertex="1" parent="WIyWlLk6GJQsqaUBKTNV-1">
          <mxGeometry x="1060" y="330" width="160" height="100" as="geometry">
            <mxRectangle x="130" y="380" width="160" height="26" as="alternateBounds" />
          </mxGeometry>
        </mxCell>
        <mxCell id="3fUCTi72qEseTl0GMBQq-21" value="" style="line;html=1;strokeWidth=1;align=left;verticalAlign=middle;spacingTop=-1;spacingLeft=3;spacingRight=3;rotatable=0;labelPosition=right;points=[];portConstraint=eastwest;" vertex="1" parent="3fUCTi72qEseTl0GMBQq-18">
          <mxGeometry y="26" width="160" height="64" as="geometry" />
        </mxCell>
        <mxCell id="3fUCTi72qEseTl0GMBQq-26" value="" style="endArrow=diamondThin;endFill=1;endSize=24;html=1;rounded=0;exitX=0.5;exitY=0;exitDx=0;exitDy=0;" edge="1" parent="WIyWlLk6GJQsqaUBKTNV-1" source="zkfFHV4jXpPFQw0GAbJ--13">
          <mxGeometry width="160" relative="1" as="geometry">
            <mxPoint x="370" y="500" as="sourcePoint" />
            <mxPoint x="510" y="480" as="targetPoint" />
          </mxGeometry>
        </mxCell>
        <mxCell id="3fUCTi72qEseTl0GMBQq-28" value="" style="endArrow=diamondThin;endFill=1;endSize=24;html=1;rounded=0;exitX=0.438;exitY=0.007;exitDx=0;exitDy=0;exitPerimeter=0;entryX=-0.006;entryY=1;entryDx=0;entryDy=0;entryPerimeter=0;" edge="1" parent="WIyWlLk6GJQsqaUBKTNV-1" source="zkfFHV4jXpPFQw0GAbJ--6">
          <mxGeometry width="160" relative="1" as="geometry">
            <mxPoint x="250" y="490" as="sourcePoint" />
            <mxPoint x="429.03999999999996" y="392" as="targetPoint" />
            <Array as="points">
              <mxPoint x="270" y="390" />
            </Array>
          </mxGeometry>
        </mxCell>
        <mxCell id="3fUCTi72qEseTl0GMBQq-29" value="" style="endArrow=diamondThin;endFill=1;endSize=24;html=1;rounded=0;exitX=0.5;exitY=0;exitDx=0;exitDy=0;" edge="1" parent="WIyWlLk6GJQsqaUBKTNV-1" source="zkfFHV4jXpPFQw0GAbJ--17">
          <mxGeometry width="160" relative="1" as="geometry">
            <mxPoint x="740" y="460" as="sourcePoint" />
            <mxPoint x="590" y="390" as="targetPoint" />
            <Array as="points">
              <mxPoint x="730" y="390" />
            </Array>
          </mxGeometry>
        </mxCell>
        <mxCell id="3fUCTi72qEseTl0GMBQq-31" value="" style="endArrow=diamondThin;endFill=1;endSize=24;html=1;rounded=0;exitX=1;exitY=0.486;exitDx=0;exitDy=0;exitPerimeter=0;" edge="1" parent="WIyWlLk6GJQsqaUBKTNV-1" source="zkfFHV4jXpPFQw0GAbJ--23">
          <mxGeometry width="160" relative="1" as="geometry">
            <mxPoint x="810" y="640" as="sourcePoint" />
            <mxPoint x="950" y="630" as="targetPoint" />
          </mxGeometry>
        </mxCell>
        <mxCell id="3fUCTi72qEseTl0GMBQq-35" value="*" style="text;strokeColor=none;fillColor=none;align=left;verticalAlign=middle;spacingTop=-1;spacingLeft=4;spacingRight=4;rotatable=0;labelPosition=right;points=[];portConstraint=eastwest;" vertex="1" parent="WIyWlLk6GJQsqaUBKTNV-1">
          <mxGeometry x="230" y="554" width="20" height="14" as="geometry" />
        </mxCell>
        <mxCell id="3fUCTi72qEseTl0GMBQq-36" value="*" style="text;strokeColor=none;fillColor=none;align=left;verticalAlign=middle;spacingTop=-1;spacingLeft=4;spacingRight=4;rotatable=0;labelPosition=right;points=[];portConstraint=eastwest;" vertex="1" parent="WIyWlLk6GJQsqaUBKTNV-1">
          <mxGeometry x="470" y="554" width="20" height="14" as="geometry" />
        </mxCell>
        <mxCell id="3fUCTi72qEseTl0GMBQq-37" value="*" style="text;strokeColor=none;fillColor=none;align=left;verticalAlign=middle;spacingTop=-1;spacingLeft=4;spacingRight=4;rotatable=0;labelPosition=right;points=[];portConstraint=eastwest;" vertex="1" parent="WIyWlLk6GJQsqaUBKTNV-1">
          <mxGeometry x="690" y="550" width="20" height="14" as="geometry" />
        </mxCell>
        <mxCell id="3fUCTi72qEseTl0GMBQq-38" value="*" style="text;strokeColor=none;fillColor=none;align=left;verticalAlign=middle;spacingTop=-1;spacingLeft=4;spacingRight=4;rotatable=0;labelPosition=right;points=[];portConstraint=eastwest;" vertex="1" parent="WIyWlLk6GJQsqaUBKTNV-1">
          <mxGeometry x="890" y="611" width="20" height="14" as="geometry" />
        </mxCell>
        <mxCell id="3fUCTi72qEseTl0GMBQq-39" value="*" style="text;strokeColor=none;fillColor=none;align=left;verticalAlign=middle;spacingTop=-1;spacingLeft=4;spacingRight=4;rotatable=0;labelPosition=right;points=[];portConstraint=eastwest;" vertex="1" parent="WIyWlLk6GJQsqaUBKTNV-1">
          <mxGeometry x="810" y="611" width="10" height="14" as="geometry" />
        </mxCell>
        <mxCell id="3fUCTi72qEseTl0GMBQq-43" value="" style="endArrow=diamondThin;endFill=1;endSize=24;html=1;rounded=0;exitX=0.5;exitY=0;exitDx=0;exitDy=0;" edge="1" parent="WIyWlLk6GJQsqaUBKTNV-1" source="zkfFHV4jXpPFQw0GAbJ--0">
          <mxGeometry width="160" relative="1" as="geometry">
            <mxPoint x="560" y="560" as="sourcePoint" />
            <mxPoint x="590" y="250" as="targetPoint" />
            <Array as="points">
              <mxPoint x="510" y="250" />
            </Array>
          </mxGeometry>
        </mxCell>
        <mxCell id="3fUCTi72qEseTl0GMBQq-44" value="Çalışanlar" style="swimlane;fontStyle=0;align=center;verticalAlign=top;childLayout=stackLayout;horizontal=1;startSize=26;horizontalStack=0;resizeParent=1;resizeLast=0;collapsible=1;marginBottom=0;rounded=0;shadow=0;strokeWidth=1;" vertex="1" parent="WIyWlLk6GJQsqaUBKTNV-1">
          <mxGeometry x="590" y="190" width="160" height="102" as="geometry">
            <mxRectangle x="130" y="380" width="160" height="26" as="alternateBounds" />
          </mxGeometry>
        </mxCell>
        <mxCell id="3fUCTi72qEseTl0GMBQq-45" value="" style="line;html=1;strokeWidth=1;align=left;verticalAlign=middle;spacingTop=-1;spacingLeft=3;spacingRight=3;rotatable=0;labelPosition=right;points=[];portConstraint=eastwest;" vertex="1" parent="3fUCTi72qEseTl0GMBQq-44">
          <mxGeometry y="26" width="160" height="74" as="geometry" />
        </mxCell>
        <mxCell id="3fUCTi72qEseTl0GMBQq-46" value="" style="endArrow=diamondThin;endFill=1;endSize=24;html=1;rounded=0;entryX=0.5;entryY=0;entryDx=0;entryDy=0;" edge="1" parent="WIyWlLk6GJQsqaUBKTNV-1" target="3fUCTi72qEseTl0GMBQq-1">
          <mxGeometry width="160" relative="1" as="geometry">
            <mxPoint x="1030" y="480" as="sourcePoint" />
            <mxPoint x="1010" y="510" as="targetPoint" />
          </mxGeometry>
        </mxCell>
        <mxCell id="3fUCTi72qEseTl0GMBQq-47" value="" style="endArrow=none;html=1;rounded=0;exitX=0.5;exitY=1;exitDx=0;exitDy=0;" edge="1" parent="WIyWlLk6GJQsqaUBKTNV-1" source="3fUCTi72qEseTl0GMBQq-12">
          <mxGeometry width="50" height="50" relative="1" as="geometry">
            <mxPoint x="910" y="480" as="sourcePoint" />
            <mxPoint x="1030" y="480" as="targetPoint" />
            <Array as="points">
              <mxPoint x="910" y="480" />
            </Array>
          </mxGeometry>
        </mxCell>
        <mxCell id="3fUCTi72qEseTl0GMBQq-48" value="" style="endArrow=none;html=1;rounded=0;entryX=0.5;entryY=1;entryDx=0;entryDy=0;" edge="1" parent="WIyWlLk6GJQsqaUBKTNV-1" target="3fUCTi72qEseTl0GMBQq-18">
          <mxGeometry width="50" height="50" relative="1" as="geometry">
            <mxPoint x="1030" y="480" as="sourcePoint" />
            <mxPoint x="1170" y="470" as="targetPoint" />
            <Array as="points">
              <mxPoint x="1140" y="480" />
            </Array>
          </mxGeometry>
        </mxCell>
        <mxCell id="3fUCTi72qEseTl0GMBQq-53" value="*" style="text;strokeColor=none;fillColor=none;align=left;verticalAlign=middle;spacingTop=-1;spacingLeft=4;spacingRight=4;rotatable=0;labelPosition=right;points=[];portConstraint=eastwest;" vertex="1" parent="WIyWlLk6GJQsqaUBKTNV-1">
          <mxGeometry x="530" y="234" width="20" height="14" as="geometry" />
        </mxCell>
        <mxCell id="3fUCTi72qEseTl0GMBQq-54" value="1" style="text;strokeColor=none;fillColor=none;align=left;verticalAlign=middle;spacingTop=-1;spacingLeft=4;spacingRight=4;rotatable=0;labelPosition=right;points=[];portConstraint=eastwest;" vertex="1" parent="WIyWlLk6GJQsqaUBKTNV-1">
          <mxGeometry x="870" y="430" width="20" height="14" as="geometry" />
        </mxCell>
        <mxCell id="3fUCTi72qEseTl0GMBQq-55" value="1" style="text;strokeColor=none;fillColor=none;align=left;verticalAlign=middle;spacingTop=-1;spacingLeft=4;spacingRight=4;rotatable=0;labelPosition=right;points=[];portConstraint=eastwest;" vertex="1" parent="WIyWlLk6GJQsqaUBKTNV-1">
          <mxGeometry x="1100" y="430" width="20" height="14" as="geometry" />
        </mxCell>
        <mxCell id="3fUCTi72qEseTl0GMBQq-56" value="1" style="text;strokeColor=none;fillColor=none;align=left;verticalAlign=middle;spacingTop=-1;spacingLeft=4;spacingRight=4;rotatable=0;labelPosition=right;points=[];portConstraint=eastwest;" vertex="1" parent="WIyWlLk6GJQsqaUBKTNV-1">
          <mxGeometry x="990" y="530" width="20" height="14" as="geometry" />
        </mxCell>
        <mxCell id="3fUCTi72qEseTl0GMBQq-58" value="" style="endArrow=diamondThin;endFill=0;endSize=24;html=1;rounded=0;exitX=0.5;exitY=0;exitDx=0;exitDy=0;" edge="1" parent="WIyWlLk6GJQsqaUBKTNV-1" source="3fUCTi72qEseTl0GMBQq-12">
          <mxGeometry width="160" relative="1" as="geometry">
            <mxPoint x="910" y="267" as="sourcePoint" />
            <mxPoint x="750" y="267" as="targetPoint" />
            <Array as="points">
              <mxPoint x="910" y="267" />
            </Array>
          </mxGeometry>
        </mxCell>
        <mxCell id="3fUCTi72qEseTl0GMBQq-59" value="*" style="text;strokeColor=none;fillColor=none;align=left;verticalAlign=middle;spacingTop=-1;spacingLeft=4;spacingRight=4;rotatable=0;labelPosition=right;points=[];portConstraint=eastwest;" vertex="1" parent="WIyWlLk6GJQsqaUBKTNV-1">
          <mxGeometry x="870" y="310" width="20" height="14" as="geometry" />
        </mxCell>
        <mxCell id="3fUCTi72qEseTl0GMBQq-61" value="" style="endArrow=diamondThin;endFill=0;endSize=24;html=1;rounded=0;exitX=0.45;exitY=-0.02;exitDx=0;exitDy=0;exitPerimeter=0;" edge="1" parent="WIyWlLk6GJQsqaUBKTNV-1" source="3fUCTi72qEseTl0GMBQq-18">
          <mxGeometry width="160" relative="1" as="geometry">
            <mxPoint x="1020" y="210" as="sourcePoint" />
            <mxPoint x="750" y="220" as="targetPoint" />
            <Array as="points">
              <mxPoint x="1132" y="220" />
            </Array>
          </mxGeometry>
        </mxCell>
        <mxCell id="3fUCTi72qEseTl0GMBQq-62" value="*" style="text;strokeColor=none;fillColor=none;align=left;verticalAlign=middle;spacingTop=-1;spacingLeft=4;spacingRight=4;rotatable=0;labelPosition=right;points=[];portConstraint=eastwest;" vertex="1" parent="WIyWlLk6GJQsqaUBKTNV-1">
          <mxGeometry x="1090" y="310" width="20" height="14" as="geometry" />
        </mxCell>
      </root>
    </mxGraphModel>
  </diagram>
</mxfile>
